<svg width="470" height="78" viewBox="0 0 470 78" fill="none" xmlns="http://www.w3.org/2000/svg">
<rect width="470" height="78" fill="#1E1E1E"/>
<rect width="470" height="78" fill="#666666"/>
<path d="M74.6918 49.2485C74.6918 61.9149 65.4982 72.183 54.1573 72.183C36.4589 69.5318 22.1547 57.1325 33.6229 49.2485C33.6229 36.5821 42.8165 26.314 54.1573 26.314C70.7195 28.9986 84.0139 41.3754 74.6918 49.2485Z" fill="white"/>
<path d="M76.0603 49.2485C76.0631 48.0315 75.932 46.8172 75.6689 45.6227L81.1229 42.8515L73.6334 31.3046L68.2055 34.0759C66.1072 32.5023 63.7017 31.2814 61.1074 30.4732V25H46.1806V30.5656C43.5863 31.3738 41.1808 32.5947 39.0825 34.1682L33.6546 31.397L26.165 42.9439L31.6191 45.7151C31.0971 48.1102 31.0971 50.5715 31.6191 52.9666L26.165 55.7378L33.6546 67.2847L39.0825 64.5135C41.1808 66.087 43.5863 67.3079 46.1806 68.1161V73.4969H61.1074V67.9313C63.7017 67.1232 66.1072 65.9022 68.2055 64.3287L73.6334 67.1L81.1229 55.5531L75.6689 52.7818C75.9254 51.6176 76.0564 50.4346 76.0603 49.2485Z" stroke="#F57C00" stroke-width="5.09333" stroke-miterlimit="10"/>
<path d="M53.6439 58.0704C59.1494 58.0704 63.6125 54.1207 63.6125 49.2486C63.6125 44.3764 59.1494 40.4268 53.6439 40.4268C48.1384 40.4268 43.6753 44.3764 43.6753 49.2486C43.6753 54.1207 48.1384 58.0704 53.6439 58.0704Z" stroke="#F57C00" stroke-width="5.09333" stroke-miterlimit="10"/>
<rect width="9.07762" height="5.37515" transform="matrix(0.545626 -0.838029 0.871013 0.49126 67.7939 61.4243)" fill="white"/>
<rect width="9.07762" height="7.00323" transform="matrix(0.545626 -0.838029 0.871013 0.49126 29.6084 41.9949)" fill="white"/>
<path d="M131.196 17.887H147.368V41.5275H141.592V20.6682H136.972V44.3087H146.213V47.09H138.127V69.3399H140.437V49.1759H147.368V73.5118H131.196V17.887Z" fill="white"/>
<path d="M426.921 17.887H432.697V43.6134H436.163V17.887H443.094C443.123 21.4998 443.143 25.1126 443.157 28.7255C443.163 29.9548 443.171 31.1834 443.18 32.412C443.195 34.1795 443.201 35.9469 443.207 37.7144L443.224 39.3762C443.224 43.311 443.224 43.311 442.435 45.1278L441.939 46.3947L443.094 47.09C443.197 48.9944 443.227 50.8815 443.207 52.7853L443.201 54.5131C443.195 56.3411 443.18 58.1691 443.167 59.9963C443.16 61.2326 443.155 62.4689 443.15 63.7051C443.138 66.7422 443.118 69.7794 443.094 72.8165H436.163V47.09H432.697V72.8165H426.921V17.887Z" fill="white"/>
<path d="M108.093 17.887C110.057 18.6386 109.796 18.637 111.298 19.9713C111.691 22.1865 111.613 22.1214 111.559 24.8248V26.4172C111.535 27.9333 111.607 29.0451 111.559 30.561C111.542 31.5901 111.573 33.0049 111.559 34.034C111.52 36.5545 111.63 39.0077 111.559 41.5275H105.783V20.6682L102.281 20.8921L102.318 70.0352H105.783V43.6134H111.559V45.9569C111.559 48.95 111.559 51.7406 111.559 54.5031C111.61 55.7269 111.559 56.9673 111.559 58.1865C111.559 59.9069 111.484 61.4893 111.559 63.2512V66.9346C111.559 70.618 112.813 70.2174 113.869 72.8165L111.861 72.9201C109.044 73.3805 108.48 73.5118 106.938 73.5118C105.396 73.5118 101.697 73.7489 98.6937 72.4167C95.7735 70.1291 95.9629 68.6571 95.9618 65.7883L95.9433 64.2975C95.9283 62.674 95.9479 61.0518 95.9687 59.429C95.9687 58.2998 95.9664 57.1713 95.9629 56.0421C95.9629 53.6781 95.9768 51.314 96.0022 48.95C96.0357 45.9177 96.0322 42.8861 96.0172 39.8539C96.0091 37.5232 96.0184 35.1932 96.0334 32.8626C96.038 31.7445 96.038 30.6264 96.0334 29.5084C96.0311 27.9474 96.0496 26.3864 96.075 24.8248L96.0934 22.1318C96.5417 19.9729 96.5417 19.9729 98.0515 18.6428C101.367 17.362 104.288 17.6415 108.093 17.887Z" fill="white"/>
<path d="M304.474 17.5393C308.822 17.9753 309.918 18.5642 312.56 20.6682C313.084 23.0267 313.084 23.0267 313.011 25.8065C313.005 26.2967 312.999 26.7869 312.991 27.2917C312.96 28.8503 312.913 30.4088 312.849 31.967C312.826 33.026 312.805 34.0856 312.785 35.1446C312.734 37.736 312.655 40.3274 312.56 42.9181H306.784L306.784 21.3635H302.163L302.163 43.6134L309.094 44.3088C312.227 45.9413 312.536 46.9704 313.045 49.4568C313.083 50.3906 313.101 51.3244 313.102 52.2589L313.128 53.765C313.14 54.8142 313.143 55.8634 313.139 56.9119C313.138 58.5119 313.185 60.1097 313.237 61.7096C313.243 62.731 313.246 63.7524 313.246 64.7745L313.304 66.2138C313.239 68.8755 312.627 69.9845 309.855 72.0996C306.784 73.5118 306.784 73.5118 303.174 73.5556C299.274 72.6878 298.394 72.197 296.388 70.0352C295.995 67.6767 295.995 67.6767 296.049 64.8969L296.064 63.4117C296.084 61.8528 296.127 60.2953 296.172 58.7364C296.189 57.6775 296.204 56.6178 296.218 55.5589C296.257 52.9675 296.316 50.3767 296.388 47.7853H302.163L302.163 69.3399H306.784V47.7853L299.853 46.3947C296.819 44.6981 296.412 43.7379 295.921 41.2355C295.891 40.2968 295.881 39.3581 295.886 38.4202L295.869 36.9093C295.861 35.857 295.863 34.8048 295.872 33.7526C295.882 32.1464 295.849 30.5402 295.812 28.9334C295.81 27.9092 295.811 26.885 295.815 25.8615L295.775 24.4104C295.831 22.079 296.152 20.8552 298.518 18.9744C301.008 17.887 301.008 17.887 304.474 17.5393Z" fill="white"/>
<path d="M403.817 17.887C405.781 18.601 405.781 18.601 407.282 19.9729C407.585 21.8711 407.687 23.6059 407.621 25.5006L407.606 27.1276C407.583 28.8424 407.547 30.557 407.5 32.2715C407.481 33.4341 407.465 34.5974 407.451 35.7599C407.413 38.61 407.354 41.4594 407.282 44.3088H401.507V20.6682H398.041V70.0352H401.507V46.3947H407.282C407.397 49.8093 407.481 53.224 407.537 56.6394C407.56 57.8005 407.591 58.9617 407.631 60.1229C407.687 61.7944 407.713 63.4646 407.734 65.1361L407.806 66.7054C407.808 69.1466 407.604 70.474 405.125 72.4487C402.662 73.5118 402.662 73.5118 399.774 73.8594C395.874 73.3901 394.698 72.6148 392.265 70.7305C391.687 68.4833 391.687 68.4833 391.685 65.7883L391.667 64.2975C391.652 62.674 391.672 61.0518 391.692 59.429C391.692 58.2998 391.69 57.1713 391.687 56.0421C391.687 53.6781 391.7 51.314 391.726 48.9499C391.759 45.9177 391.756 42.8861 391.741 39.8539C391.733 37.5232 391.742 35.1932 391.757 32.8626C391.762 31.7445 391.762 30.6264 391.757 29.5084C391.755 27.9474 391.773 26.3864 391.799 24.8248L391.817 22.1318C392.265 19.9729 392.265 19.9729 393.775 18.6428C397.09 17.362 400.012 17.6415 403.817 17.887Z" fill="white"/>
<path d="M178.559 17.8869C181.569 19.555 182.006 20.5583 182.417 23.0267C182.399 23.9445 182.382 24.8616 182.363 25.8072L182.347 27.2917C182.324 28.8502 182.288 30.4087 182.24 31.967C182.223 33.0259 182.208 34.0856 182.194 35.1445C182.155 37.736 182.096 40.3267 182.024 42.9181H176.248V20.6682H172.783V43.6134L178.559 44.3087C180.621 45.0666 180.621 45.0666 182.024 46.3947C182.382 48.2025 182.537 49.8392 182.525 51.6477L182.543 53.2038C182.551 54.2892 182.55 55.3753 182.539 56.4614C182.536 58.117 182.556 59.7726 182.599 61.428C182.602 62.4848 182.6 63.5417 182.597 64.5979L182.636 66.0907C182.579 68.5591 182.076 69.9831 179.94 72.1135C177.403 73.5118 177.403 73.5118 173.216 73.5118C169.317 72.8165 169.317 72.8165 167.007 70.7305C166.812 69.0429 166.736 67.3511 166.782 65.6596L166.791 64.1717C166.804 62.6065 166.834 61.0407 166.862 59.4755C166.874 58.4131 166.886 57.3507 166.894 56.2882C166.919 53.6857 166.959 51.0831 167.007 48.4806H172.783V70.0352H176.248V47.09L169.317 46.3947C166.387 44.6307 166.71 43.4911 166.656 41.0839L166.659 39.4659L166.644 37.8034C166.638 36.6422 166.637 35.4811 166.642 34.3199C166.645 32.5413 166.619 30.7641 166.59 28.9862C166.586 27.8584 166.586 26.7306 166.588 25.6035L166.555 23.9904C166.608 20.3372 166.608 20.3372 168.513 18.5969C171.898 17.3703 174.738 17.5998 178.559 17.8869Z" fill="white"/>
<path d="M327.577 17.887H342.594V21.3635H337.974V72.8165H332.198V20.6682H327.577V17.887Z" fill="white"/>
<path d="M197.042 17.887H212.059V21.3635H207.439V72.8165H201.663V20.6682H197.042V17.887Z" fill="white"/>
<path d="M269.24 17.5835C273.283 17.8873 273.284 17.8874 275.239 18.6411C277.556 20.6852 277.198 22.4477 277.216 24.8999L277.238 26.4116C277.261 28.0609 277.256 29.7096 277.25 31.3589C277.255 32.5046 277.262 33.6497 277.267 34.7954C277.279 37.1963 277.275 39.5979 277.264 41.9995C277.251 45.0788 277.274 48.1575 277.308 51.2368C277.328 53.6023 277.328 55.9683 277.321 58.3345C277.321 59.4698 277.329 60.6054 277.344 61.7407C277.357 63.3268 277.352 64.9135 277.328 66.4995V69.2358C276.748 71.4259 277.761 71.9006 275.594 73.23C272.466 74.1937 271.55 73.98 266.391 73.98C260.577 73.2299 261.875 70.9221 261.19 68.23L261.151 65.1528L261.132 63.7056C261.117 62.1343 261.136 60.5652 261.157 58.9946C261.157 57.8996 261.155 56.8045 261.151 55.7095C261.151 53.4177 261.165 51.1252 261.19 48.8335C261.224 45.8982 261.221 42.9629 261.206 40.0269C261.198 37.7671 261.207 35.507 261.222 33.2466C261.226 32.164 261.226 31.0811 261.222 29.9985C261.219 28.4856 261.238 26.9741 261.264 25.4604L261.282 22.853C261.998 19.3605 263.357 18.0254 269.239 17.5825L269.24 17.5835ZM267.506 20.562V69.9292H270.972V20.562H267.506Z" fill="white"/>
<path d="M367.932 17.5239C371.974 17.8277 371.974 17.8279 373.93 18.5815C376.247 20.6257 375.889 22.388 375.906 24.8403L375.93 26.3521C375.953 28.0013 375.947 29.6501 375.941 31.2993C375.946 32.4451 375.952 33.5901 375.958 34.7358C375.969 37.1366 375.967 39.5375 375.955 41.939C375.942 45.0185 375.965 48.0977 375.999 51.1772C376.02 53.5426 376.02 55.9079 376.013 58.2739C376.013 59.4092 376.02 60.5449 376.035 61.6802C376.049 63.2663 376.043 64.8529 376.019 66.439V69.1763C375.44 71.3663 376.451 71.841 374.284 73.1704C371.156 74.1339 370.241 73.9204 365.081 73.9204C359.267 73.1702 360.567 70.8616 359.882 68.1694L359.843 65.0933L359.823 63.646C359.808 62.0748 359.828 60.5056 359.849 58.9351C359.849 57.8401 359.846 56.7449 359.843 55.6499C359.843 53.3582 359.856 51.0657 359.882 48.7739C359.915 45.8384 359.912 42.9025 359.897 39.9663C359.889 37.7068 359.898 35.4472 359.913 33.187C359.918 32.1044 359.918 31.0216 359.913 29.939C359.911 28.426 359.93 26.9145 359.955 25.4009L359.974 22.7935C360.69 19.301 362.048 17.9659 367.93 17.5229L367.932 17.5239ZM366.199 20.5024V69.8696H369.665V20.5024H366.199Z" fill="white"/>
<path d="M228.582 18.6286C231.908 17.3701 234.83 17.642 238.628 17.8874C240.589 18.6286 240.589 18.6286 242.094 19.9733C242.418 21.7273 242.533 23.3076 242.487 25.0602L242.489 26.6237C242.482 28.3279 242.463 30.032 242.432 31.736C242.423 36.0282 242.389 40.3209 242.332 44.613C242.297 47.7862 242.281 50.9612 242.262 54.1345C242.225 60.3614 242.167 66.5891 242.094 72.8161H236.318V47.0895H232.853V72.8161H227.077C226.996 65.9625 226.935 59.1082 226.898 52.2546C226.879 49.0723 226.855 45.89 226.816 42.7077C226.778 39.6373 226.758 36.5679 226.748 33.4968C226.741 32.3246 226.729 31.1523 226.71 29.9802C226.688 28.3404 226.679 26.7 226.683 25.0602L226.646 23.5866C226.667 21.621 226.73 20.2827 228.582 18.6286ZM232.853 20.5622V43.2292H236.319V20.5622H232.853Z" fill="white"/>
<path d="M230.502 4C233.208 4.18078 235.661 5.32371 238.344 5.60183L242.265 4V8.00458C239.593 8.43915 241.448 8.54475 238.344 8.80549L232.537 7.47656V8.86718H227.561C227.561 7.20366 227.562 7.20366 227.562 5.39063L230.502 4Z" fill="white"/>
</svg>
