<svg width="340" height="66" viewBox="0 0 340 66" fill="none" xmlns="http://www.w3.org/2000/svg">
<path d="M284.34 7.91692C285.809 8.69926 285.809 8.69926 286.944 10.0761C287.281 12.3108 287.281 12.3108 287.295 15.0983L287.312 16.6385C287.33 18.3184 287.325 19.9982 287.321 21.6788L287.334 25.1831C287.343 27.6316 287.34 30.0794 287.331 32.5286C287.322 35.6659 287.339 38.8031 287.364 41.9404C287.38 44.3529 287.38 46.7647 287.375 49.1772C287.375 50.3338 287.38 51.4904 287.391 52.647C287.401 54.2647 287.398 55.8825 287.38 57.5001V60.2898C286.944 62.6159 286.944 62.6159 285.376 64.3778C283.471 65.4948 283.471 65.4948 280.324 65.4502C277.394 64.7751 277.394 64.7751 275.658 62.6159C275.432 60.3761 275.432 60.3761 275.419 57.5822L275.406 56.0391C275.394 54.3549 275.395 52.6715 275.398 50.9881L275.385 47.4787C275.379 45.0273 275.379 42.5759 275.384 40.1245C275.389 36.9801 275.375 33.8363 275.354 30.6926C275.343 28.2772 275.339 25.8618 275.343 23.4464C275.343 22.2876 275.339 21.1282 275.33 19.9687C275.319 18.3493 275.325 16.7299 275.335 15.1106L275.333 12.3159C275.658 10.0761 275.658 10.0761 276.791 8.69854C279.283 7.37425 281.479 7.66286 284.34 7.91692ZM209.244 7.6024C212.282 7.91692 212.282 7.91692 213.752 8.6971C215.494 10.8131 215.224 12.6376 215.237 15.1761L215.255 16.7407C215.272 18.4479 215.268 20.1544 215.264 21.8616C215.267 23.0477 215.272 24.2331 215.277 25.4192C215.285 27.9044 215.283 30.3896 215.274 32.8755C215.264 36.0632 215.282 39.2501 215.307 42.4377C215.323 44.8862 215.323 47.3347 215.317 49.784C215.317 50.9593 215.323 52.1346 215.334 53.3099C215.344 54.9518 215.34 56.5938 215.323 58.2357V61.0685C214.887 63.3356 215.647 63.8266 214.019 65.2027C211.668 66.2002 210.98 65.9791 207.102 65.9791C202.733 65.2027 203.709 62.8138 203.194 60.027L203.165 56.8423L203.15 55.3445C203.139 53.718 203.154 52.0936 203.169 50.4677C203.169 49.3341 203.167 48.2006 203.165 47.067C203.165 44.6948 203.175 42.3226 203.194 39.9504C203.22 36.9117 203.217 33.873 203.206 30.8336C203.2 28.4945 203.207 26.1554 203.218 23.8156C203.221 22.695 203.221 21.5744 203.218 20.4538C203.216 18.8877 203.23 17.323 203.249 15.7562L203.263 13.0572C203.801 9.44202 204.822 8.06015 209.243 7.60168L209.244 7.6024Z" fill="#0F0F0F"/>
<path d="M186.237 7.91696C187.711 8.68418 187.711 8.68418 188.842 10.0761C189.085 11.892 189.172 13.5279 189.137 15.3423L189.139 16.9603C189.134 18.7244 189.12 20.4884 189.096 22.2524C189.089 26.6953 189.064 31.1382 189.021 35.581C188.995 38.8658 188.983 42.152 188.969 45.4369C188.941 51.8827 188.897 58.3293 188.842 64.7751H184.501V38.1453H181.897V64.7751H177.556C177.495 57.6808 177.449 50.5858 177.421 43.4914C177.407 40.1973 177.389 36.9031 177.36 33.6089C177.331 30.4306 177.316 27.2538 177.308 24.0747C177.304 22.8613 177.295 21.6478 177.281 20.4344C177.264 18.7371 177.257 17.0397 177.26 15.3423L177.232 13.8165C177.248 11.7819 177.295 10.3971 178.687 8.6849C181.187 7.3822 183.383 7.6629 186.237 7.91696Z" fill="#0A0A0A"/>
<path d="M105.499 7.91696H117.653V32.3876H113.312V10.7959H109.839V35.2665H116.785V38.1453H110.707V61.1765H112.444V40.3045H117.653V65.4948H105.499V7.91696Z" fill="black"/>
<path d="M327.748 7.91696H332.088V34.5467H334.693V7.91696H339.902C339.924 11.6566 339.939 15.3963 339.95 19.136C339.954 20.4085 339.96 21.6802 339.967 22.952C339.978 24.7815 339.983 26.6111 339.987 28.4406L340 30.1607C340 34.2336 340 34.2337 339.407 36.1143L339.034 37.4256L339.902 38.1453C339.979 40.1167 340.002 42.07 339.987 44.0406L339.983 45.8291C339.978 47.7213 339.967 49.6134 339.957 51.5049C339.951 52.7845 339.948 54.0642 339.944 55.3439C339.935 58.4876 339.92 61.6314 339.902 64.7751H334.693V38.1453H332.088V64.7751H327.748V7.91696Z" fill="#0A0A0A"/>
<path d="M88.1353 7.91695C89.6112 8.69498 89.6112 8.69498 90.7398 10.0761C91.0349 12.3692 91.0349 12.3692 90.9941 15.1674L90.9829 16.6587C90.9652 18.2281 90.9383 19.7973 90.9021 21.3664C90.8891 22.4316 90.8778 23.4968 90.8674 24.562C90.8379 27.171 90.7936 29.7793 90.7398 32.3876H86.399V10.7958L84.6626 11.5156L83.7945 61.8962H86.399L85.5308 34.5467H90.7398L90.8057 36.934C90.8874 39.8648 90.9742 42.7955 91.0627 45.7262C91.1009 46.9929 91.1365 48.2603 91.1712 49.5278C91.2216 51.3515 91.2772 53.176 91.3336 54.9998L91.377 56.7085C91.4673 59.4729 91.6826 62.0848 92.4761 64.7751L90.3595 64.7298C88.1926 64.5621 88.1926 64.5621 87.2671 65.4948C84.5237 65.8022 83.3283 65.7403 81.0711 64.3613C78.8764 61.9934 79.0187 60.4697 79.0179 57.5001L79.004 55.9571C78.9927 54.2765 79.0074 52.5974 79.0231 50.9176C79.0231 49.7487 79.0213 48.5806 79.0187 47.4118C79.0187 44.9647 79.0292 42.5177 79.0483 40.0706C79.0734 36.9319 79.0708 33.7939 79.0595 30.6552C79.0535 28.2427 79.0604 25.8309 79.0717 23.4184C79.0752 22.261 79.0752 21.1037 79.0717 19.9464C79.07 18.3306 79.0838 16.7149 79.1029 15.0984L79.1168 12.3109C79.4537 10.0761 79.4537 10.0761 80.5884 8.69929C83.08 7.37356 85.2756 7.66289 88.1353 7.91695Z" fill="#0A0A0A"/>
<path d="M235.723 7.5571C238.99 8.00836 239.814 8.61797 241.8 10.7959C242.194 13.2372 242.194 13.2372 242.138 16.1146C242.134 16.622 242.13 17.1294 242.123 17.6519C242.1 19.2653 242.065 20.8784 242.017 22.4914C241.999 23.5875 241.984 24.6844 241.969 25.7805C241.931 28.4629 241.871 31.1453 241.8 33.827H237.459L236.591 11.5156H234.854L233.986 34.5467L239.195 35.2665C241.55 36.9564 241.781 38.0216 242.164 40.5953C242.193 41.5619 242.206 42.5285 242.207 43.4958L242.227 45.0547C242.235 46.1408 242.238 47.2268 242.235 48.3122C242.234 49.9682 242.269 51.6222 242.308 53.2783C242.313 54.3355 242.315 55.3928 242.315 56.4508L242.359 57.9406C242.31 60.6957 241.85 61.8437 239.766 64.0331C237.459 65.4948 237.459 65.4948 234.746 65.5402C231.815 64.642 231.153 64.1338 229.645 61.8962C229.35 59.4549 229.35 59.4549 229.391 56.5775L229.402 55.0401C229.417 53.4265 229.449 51.8143 229.483 50.2007C229.496 49.1046 229.507 48.0077 229.518 46.9116C229.547 44.2292 229.592 41.5475 229.645 38.8651H233.986L234.854 61.1765H236.591V38.8651L232.25 37.4256C229.969 35.6695 229.664 34.6756 229.295 32.0853C229.272 31.1136 229.264 30.142 229.269 29.1711L229.256 27.6072C229.25 26.518 229.251 25.4288 229.258 24.3396C229.265 22.677 229.241 21.0145 229.213 19.3512C229.211 18.2911 229.212 17.2309 229.215 16.1715L229.185 14.6694C229.227 12.2562 229.468 10.9895 231.246 9.04261C233.118 7.91696 233.118 7.91696 235.723 7.5571Z" fill="#0A0A0A"/>
<path d="M310.384 7.91695C311.86 8.65611 311.86 8.65611 312.989 10.0761C313.216 12.041 313.293 13.8367 313.243 15.7979L313.232 17.4821C313.215 19.257 313.188 21.0319 313.152 22.8066C313.138 24.01 313.126 25.2141 313.116 26.4174C313.087 29.3676 313.043 32.317 312.989 35.2664H308.648V10.7958L306.912 11.5156L306.044 61.8962H308.648V37.4256H312.989C313.075 40.9602 313.138 44.4947 313.18 48.03C313.197 49.232 313.221 50.4339 313.251 51.6358C313.293 53.3661 313.313 55.0948 313.328 56.825L313.382 58.4495C313.384 60.9764 313.23 62.3504 311.367 64.3944C309.516 65.4948 309.516 65.4948 307.346 65.8547C304.415 65.3689 303.531 64.5664 301.703 62.6159C301.268 60.2898 301.268 60.2898 301.267 57.5001L301.253 55.9571C301.242 54.2765 301.257 52.5974 301.272 50.9176C301.272 49.7487 301.27 48.5806 301.268 47.4118C301.268 44.9647 301.278 42.5177 301.297 40.0706C301.323 36.9319 301.32 33.7939 301.309 30.6552C301.303 28.2427 301.309 25.8309 301.321 23.4184C301.324 22.261 301.324 21.1037 301.321 19.9464C301.319 18.3306 301.333 16.7149 301.352 15.0984L301.366 12.3109C301.703 10.0761 301.703 10.0761 302.837 8.69929C305.329 7.37356 307.525 7.66289 310.384 7.91695Z" fill="#0A0A0A"/>
<path d="M141.093 7.91694C143.356 9.64356 143.684 10.6821 143.993 13.2371C143.98 14.1872 143.967 15.1365 143.952 16.1153L143.941 17.6519C143.923 19.2652 143.896 20.8783 143.86 22.4913C143.847 23.5875 143.836 24.6843 143.825 25.7805C143.796 28.4629 143.751 31.1446 143.698 33.827H139.357L138.489 11.5156L136.752 10.7958V34.5467L141.093 35.2664C142.643 36.0509 142.643 36.0509 143.698 37.4256C143.967 39.2969 144.083 40.9911 144.074 42.8631L144.087 44.4739C144.093 45.5973 144.093 46.7216 144.085 47.8458C144.082 49.5595 144.097 51.2732 144.13 52.9868C144.132 54.0807 144.131 55.1747 144.128 56.268L144.158 57.8132C144.114 60.3682 143.737 61.8422 142.131 64.0475C140.225 65.4948 140.225 65.4948 137.078 65.4948C134.148 64.7751 134.148 64.7751 132.411 62.6159C132.265 60.8691 132.208 59.1178 132.242 57.367L132.249 55.8268C132.259 54.2067 132.281 52.5859 132.303 50.9658C132.312 49.866 132.32 48.7663 132.326 47.6666C132.345 44.9726 132.376 42.2787 132.411 39.5848H136.752V61.8962H139.357V38.1453L134.148 37.4256C131.945 35.5997 132.188 34.42 132.148 31.9284L132.15 30.2536L132.139 28.5327C132.134 27.3308 132.133 26.1288 132.137 24.9269C132.14 23.0858 132.12 21.2462 132.098 19.4059C132.095 18.2385 132.095 17.0711 132.096 15.9044L132.072 14.2347C132.112 10.4532 132.112 10.4532 133.544 8.65178C136.087 7.38219 138.222 7.6197 141.093 7.91694Z" fill="#0A0A0A"/>
<path d="M253.086 7.91696H264.372V11.5156H260.899V64.7751H256.558V10.7959H253.086V7.91696Z" fill="#0A0A0A"/>
<path d="M154.984 7.91696H166.27V11.5156H162.797V64.7751H158.456V10.7959H154.984V7.91696Z" fill="#090909"/>
<path d="M279.999 10.7959L282.603 11.5156V61.8962H279.999V10.7959Z" fill="#666666"/>
<path d="M207.941 10.6858L210.546 11.4055V61.7862H207.941V10.6858Z" fill="#666666"/>
<path d="M181.897 10.6858L184.501 11.0163V34.1488H181.897V10.6858Z" fill="#666666"/>
<path d="M179.292 0C181.326 0.187128 183.353 0.431834 185.369 0.719723H188.842L187.974 4.31834C185.966 4.76817 185.966 4.76817 183.633 5.03806L181.028 3.59862V5.03806H177.556C177.447 3.32872 177.447 3.32872 177.556 1.43945L179.292 0Z" fill="#0A0A0A"/>
<path d="M179.292 0C181.137 0.269896 181.137 0.269896 182.765 0.719723V3.59862H181.028V5.03806H177.556C177.447 3.32872 177.447 3.32872 177.556 1.43945L179.292 0Z" fill="#0A0A0A"/>
<path d="M51 37C51 50.2548 42.0457 61 31 61C13.7622 58.2256 -0.169702 45.2502 11 37C11 23.7452 19.9543 13 31 13C47.1311 15.8094 60.0795 28.7612 51 37Z" fill="white"/>
<path d="M52.3329 37C52.3356 35.7265 52.208 34.4558 51.9517 33.2058L57.2638 30.3058L49.9692 18.2225L44.6825 21.1225C42.6389 19.4759 40.2959 18.1982 37.7692 17.3525V11.625H23.2309V17.4492C20.7041 18.2949 18.3612 19.5725 16.3175 21.2192L11.0309 18.3192L3.73627 30.4025L9.04835 33.3025C8.53993 35.8088 8.53993 38.3845 9.04835 40.8908L3.73627 43.7908L11.0309 55.8742L16.3175 52.9742C18.3612 54.6208 20.7041 55.8984 23.2309 56.7442V62.375H37.7692V56.5508C40.2959 55.7051 42.6389 54.4275 44.6825 52.7808L49.9692 55.6808L57.2638 43.5975L51.9517 40.6975C52.2015 39.4792 52.3291 38.2412 52.3329 37Z" stroke="#198FC6" stroke-width="5.09333" stroke-miterlimit="10"/>
<path d="M30.5 46.2317C35.8622 46.2317 40.2092 42.0985 40.2092 37C40.2092 31.9015 35.8622 27.7683 30.5 27.7683C25.1378 27.7683 20.7908 31.9015 20.7908 37C20.7908 42.0985 25.1378 46.2317 30.5 46.2317Z" stroke="#198FC6" stroke-width="5.09333" stroke-miterlimit="10"/>
<rect x="44.2817" y="49.7415" width="9.30832" height="5.33189" transform="rotate(-58.7848 44.2817 49.7415)" fill="#FFFEFE"/>
<rect x="7.09021" y="29.4094" width="9.30832" height="6.94686" transform="rotate(-58.7848 7.09021 29.4094)" fill="#FFFEFE"/>
</svg>
